<?xml version="1.0" encoding="utf-8"?>
<!-- Generator: Adobe Illustrator 16.0.0, SVG Export Plug-In . SVG Version: 6.00 Build 0)  -->
<!DOCTYPE svg PUBLIC "-//W3C//DTD SVG 1.1//EN" "http://www.w3.org/Graphics/SVG/1.1/DTD/svg11.dtd">
<svg version="1.1" id="Layer_1" xmlns="http://www.w3.org/2000/svg" xmlns:xlink="http://www.w3.org/1999/xlink" x="0px" y="0px"
	 width="142.077px" height="142.071px" viewBox="235.423 324.5 142.077 142.071"
	 enable-background="new 235.423 324.5 142.077 142.071" xml:space="preserve">
<g id="Layer_1_1_">
	<g>
		<g>
			<g>
				<path fill="#FEDBC6" d="M349.924,381.834c9.767-2.148,17.542,2.777,17.564,13.138c0.418,10.162-9.222,21.951-21.968,22.871
					c-6.021,1.111-18.044-3.924-25.5-9.99c-7.973-5.947-11.381-12.924-12.115-12.88c0.382-0.701,7.964-0.418,17.323-3.495
					C334.469,388.917,345.486,382.998,349.924,381.834z"/>
				<path fill="#F6A57F" d="M328.188,355.821c5.535-8.259,17.033-7.614,23.821,0.116c6.575,7.406,6.516,19.037-1.312,28.406
					c-3.354,4.875-15.551,10.128-25.12,11.156c-9.877,1.533-17.128-1.161-17.675-0.525c-0.259-0.865,5.384-5.85,9.767-14.729
					C322.359,371.87,325.789,359.601,328.188,355.821z"/>
				<path fill="#D85F49" d="M294.769,352.955c-2.15-9.768,2.774-17.542,13.137-17.563c10.16-0.42,21.95,9.217,22.869,21.965
					c1.111,6.023-3.924,18.044-9.991,25.5c-5.945,7.973-12.923,11.38-12.879,12.117c-0.701-0.382-0.418-7.964-3.494-17.325
					C301.851,368.41,295.932,357.393,294.769,352.955z"/>
				<path fill="#B41426" d="M268.752,374.687c-8.262-5.537-7.617-17.033,0.115-23.821c7.407-6.574,19.039-6.512,28.405,1.312
					c4.875,3.354,10.129,15.55,11.157,25.12c1.532,9.876-1.161,17.127-0.524,17.675c-0.864,0.258-5.849-5.384-14.729-9.766
					C284.801,380.518,272.532,377.087,268.752,374.687z"/>
				<path fill="#68001E" d="M265.885,408.109c-9.766,2.148-17.543-2.775-17.565-13.139c-0.419-10.16,9.222-21.951,21.967-22.869
					c6.021-1.113,18.044,3.923,25.5,9.991c7.974,5.946,11.381,12.922,12.117,12.879c-0.382,0.701-7.964,0.417-17.326,3.495
					C281.34,401.027,270.322,406.945,265.885,408.109z"/>
				<path fill="#B41426" d="M287.618,434.125c-5.534,8.264-17.031,7.619-23.821-0.115c-6.574-7.406-6.515-19.037,1.312-28.404
					c3.354-4.875,15.55-10.128,25.12-11.157c9.877-1.532,17.128,1.161,17.675,0.525c0.258,0.865-5.384,5.849-9.767,14.728
					C293.448,418.076,290.018,430.346,287.618,434.125z"/>
				<path fill="#D85F49" d="M321.039,436.992c2.149,9.766-2.773,17.541-13.135,17.562c-10.163,0.418-21.951-9.221-22.87-21.965
					c-1.112-6.021,3.923-18.045,9.991-25.5c5.946-7.975,12.924-11.382,12.879-12.118c0.7,0.382,0.418,7.964,3.493,17.325
					C313.958,421.537,319.877,432.555,321.039,436.992z"/>
				<path fill="#F6A57F" d="M347.057,415.258c8.263,5.535,7.615,17.033-0.115,23.822c-7.405,6.574-19.036,6.516-28.405-1.312
					c-4.875-3.354-10.129-15.551-11.156-25.121c-1.532-9.875,1.161-17.126,0.525-17.674c0.864-0.258,5.849,5.383,14.729,9.766
					C331.007,409.428,343.275,412.857,347.057,415.258z"/>
				<path fill="#FEDBC6" d="M338.748,401.803c-10.933,1.791-20.006-0.979-27.568-5.886c-0.661-0.331-1.292-0.716-1.884-1.173
					c-0.89,0.144-1.391,0.229-1.391,0.229c0.734-0.044,4.143,6.934,12.115,12.879c7.456,6.066,19.479,11.104,25.5,9.992
					c12.746-0.92,22.386-12.709,21.968-22.872c-0.003-3.139-0.754-5.813-2.048-7.933
					C359.079,395.057,348.165,400.432,338.748,401.803z"/>
			</g>
		</g>
	</g>
</g>
<g id="Layer_2" display="none">
	<g id="l9xQUH_1_" display="inline">
	</g>
</g>
</svg>
