<?xml version="1.0" encoding="utf-8"?>
<!-- Generator: Adobe Illustrator 24.3.0, SVG Export Plug-In . SVG Version: 6.00 Build 0)  -->
<svg version="1.1" xmlns="http://www.w3.org/2000/svg" xmlns:xlink="http://www.w3.org/1999/xlink" x="0px" y="0px"
	 viewBox="0 0 360 360" style="enable-background:new 0 0 360 360;" xml:space="preserve">
<style type="text/css">
	.st0{fill:#FFFFFF;stroke:#68001E;stroke-width:3;stroke-miterlimit:10;}
	.st1{fill:#FEDBC6;}
	.st2{fill:#F6A57F;}
	.st3{fill:#D85F49;}
	.st4{fill:#B41426;}
	.st5{fill:#68001E;}
	.st6{display:none;}
	.st7{display:inline;}
	.st8{fill:#68001E;stroke:#68001E;stroke-linecap:round;stroke-linejoin:round;stroke-miterlimit:10;}
	.st9{font-family:'Helvetica-Light';}
	.st10{font-size:32.6027px;}
</style>
<g id="Layer_2">
	<g>
		<polygon class="st0" points="44.8,263.4 44.9,108.9 180.2,31.8 315.2,109.2 315,263.8 179.8,340.9 		"/>
	</g>
</g>
<g id="Layer_1">
	<g id="Layer_1_1_">
		<g>
			<g>
				<g>
					<path class="st1" d="M234.7,139.3c12.7-2.8,22.8,3.6,22.9,17.1c0.5,13.2-12,28.6-28.6,29.8c-7.8,1.4-23.5-5.1-33.2-13
						c-10.4-7.7-14.8-16.8-15.8-16.8c0.5-0.9,10.4-0.5,22.6-4.6C214.6,148.5,228.9,140.8,234.7,139.3z"/>
					<path class="st2" d="M206.4,105.4c7.2-10.8,22.2-9.9,31,0.2c8.6,9.6,8.5,24.8-1.7,37c-4.4,6.3-20.3,13.2-32.7,14.5
						c-12.9,2-22.3-1.5-23-0.7c-0.3-1.1,7-7.6,12.7-19.2C198.8,126.3,203.3,110.3,206.4,105.4z"/>
					<path class="st3" d="M162.9,101.7c-2.8-12.7,3.6-22.8,17.1-22.9c13.2-0.5,28.6,12,29.8,28.6c1.4,7.8-5.1,23.5-13,33.2
						c-7.7,10.4-16.8,14.8-16.8,15.8c-0.9-0.5-0.5-10.4-4.6-22.6C172.1,121.8,164.4,107.5,162.9,101.7z"/>
					<path class="st4" d="M129,130c-10.8-7.2-9.9-22.2,0.1-31c9.6-8.6,24.8-8.5,37,1.7c6.3,4.4,13.2,20.3,14.5,32.7
						c2,12.9-1.5,22.3-0.7,23c-1.1,0.3-7.6-7-19.2-12.7C149.9,137.6,133.9,133.1,129,130z"/>
					<path class="st5" d="M125.3,173.5c-12.7,2.8-22.8-3.6-22.9-17.1c-0.5-13.2,12-28.6,28.6-29.8c7.8-1.4,23.5,5.1,33.2,13
						c10.4,7.7,14.8,16.8,15.8,16.8c-0.5,0.9-10.4,0.5-22.6,4.6C145.4,164.3,131.1,172,125.3,173.5z"/>
					<path class="st4" d="M153.6,207.4c-7.2,10.8-22.2,9.9-31-0.1c-8.6-9.6-8.5-24.8,1.7-37c4.4-6.3,20.3-13.2,32.7-14.5
						c12.9-2,22.3,1.5,23,0.7c0.3,1.1-7,7.6-12.7,19.2C161.2,186.5,156.7,202.5,153.6,207.4z"/>
					<path class="st3" d="M197.1,211.1c2.8,12.7-3.6,22.8-17.1,22.9c-13.2,0.5-28.6-12-29.8-28.6c-1.4-7.8,5.1-23.5,13-33.2
						c7.7-10.4,16.8-14.8,16.8-15.8c0.9,0.5,0.5,10.4,4.5,22.6C187.9,191,195.6,205.4,197.1,211.1z"/>
					<path class="st2" d="M231,182.8c10.8,7.2,9.9,22.2-0.1,31c-9.6,8.6-24.8,8.5-37-1.7c-6.3-4.4-13.2-20.3-14.5-32.7
						c-2-12.9,1.5-22.3,0.7-23c1.1-0.3,7.6,7,19.2,12.7C210.1,175.2,226.1,179.7,231,182.8z"/>
					<path class="st1" d="M220.2,165.3c-14.2,2.3-26.1-1.3-35.9-7.7c-0.9-0.4-1.7-0.9-2.5-1.5c-1.2,0.2-1.8,0.3-1.8,0.3
						c1-0.1,5.4,9,15.8,16.8c9.7,7.9,25.4,14.5,33.2,13c16.6-1.2,29.2-16.6,28.6-29.8c0-4.1-1-7.6-2.7-10.3
						C246.7,156.5,232.4,163.5,220.2,165.3z"/>
				</g>
			</g>
		</g>
	</g>
	<g id="Layer_2_1_" class="st6">
		<g id="l9xQUH_1_" class="st7">
		</g>
	</g>
	<g>
		<text transform="matrix(1 0 0 1 94.8757 268.0182)" class="st8 st9 st10">MERINGUE</text>
	</g>
</g>
</svg>
